STARTFONT 2.1
COMMENT This font was automatically resized by bdfresize-1.4
COMMENT   mag_x = 2/1, mag_y = 2/1, blackness = 4
COMMENT Font converted from PSF to BDF.
FONT iso01a-8x8.psf
SIZE 16 72 72
FONTBOUNDINGBOX 16 16 0 -4
STARTPROPERTIES 9
POINT_SIZE 160
PIXEL_SIZE 16
RESOLUTION_X 72
RESOLUTION_Y 72
FONT_ASCENT 14
FONT_DESCENT 2
AVERAGE_WIDTH 0
SPACING "C"
_XMBDFED_INFO "Edited with xmbdfed 4.3."
ENDPROPERTIES
CHARS 256
STARTCHAR char0
ENCODING 0
SWIDTH 0 0
DWIDTH 0 0
BBX 16 16 0 -4
BITMAP
0000
0000
0000
0000
0000
0000
0000
0000
0000
0000
0000
0000
0000
0000
0000
0000
ENDCHAR
STARTCHAR char1
ENCODING 1
SWIDTH 0 0
DWIDTH 0 0
BBX 16 16 0 -4
BITMAP
3FFC
3FFC
C003
C003
CC33
CC33
C003
C003
CFF3
CFF3
C3C3
C3C3
C003
C003
3FFC
3FFC
ENDCHAR
STARTCHAR char2
ENCODING 2
SWIDTH 0 0
DWIDTH 0 0
BBX 16 16 0 -4
BITMAP
3FFC
3FFC
FFFF
FFFF
F3CF
F3CF
FFFF
FFFF
F00F
F00F
FC3F
FC3F
FFFF
FFFF
3FFC
3FFC
ENDCHAR
STARTCHAR char3
ENCODING 3
SWIDTH 0 0
DWIDTH 0 0
BBX 16 16 0 -4
BITMAP
3CF0
3CF0
FFFC
FFFC
FFFC
FFFC
FFFC
FFFC
3FF0
3FF0
0FC0
0FC0
0300
0300
0000
0000
ENDCHAR
STARTCHAR char4
ENCODING 4
SWIDTH 0 0
DWIDTH 0 0
BBX 16 16 0 -4
BITMAP
0300
0300
0FC0
0FC0
3FF0
3FF0
FFFC
FFFC
3FF0
3FF0
0FC0
0FC0
0300
0300
0000
0000
ENDCHAR
STARTCHAR char5
ENCODING 5
SWIDTH 0 0
DWIDTH 0 0
BBX 16 16 0 -4
BITMAP
0FC0
0FC0
3FF0
3FF0
0FC0
0FC0
FFFC
FFFC
FFFC
FFFC
3FF0
3FF0
0FC0
0FC0
3FF0
3FF0
ENDCHAR
STARTCHAR char6
ENCODING 6
SWIDTH 0 0
DWIDTH 0 0
BBX 16 16 0 -4
BITMAP
0300
0300
0300
0300
0FC0
0FC0
3FF0
3FF0
FFFC
FFFC
3FF0
3FF0
0FC0
0FC0
3FF0
3FF0
ENDCHAR
STARTCHAR char7
ENCODING 7
SWIDTH 0 0
DWIDTH 0 0
BBX 16 16 0 -4
BITMAP
0000
0000
0000
0000
03C0
03C0
0FF0
0FF0
0FF0
0FF0
03C0
03C0
0000
0000
0000
0000
ENDCHAR
STARTCHAR char8
ENCODING 8
SWIDTH 0 0
DWIDTH 0 0
BBX 16 16 0 -4
BITMAP
FFFF
FFFF
FFFF
FFFF
FC3F
FC3F
F00F
F00F
F00F
F00F
FC3F
FC3F
FFFF
FFFF
FFFF
FFFF
ENDCHAR
STARTCHAR char9
ENCODING 9
SWIDTH 0 0
DWIDTH 0 0
BBX 16 16 0 -4
BITMAP
0000
0000
0FF0
0FF0
3C3C
3C3C
300C
300C
300C
300C
3C3C
3C3C
0FF0
0FF0
0000
0000
ENDCHAR
STARTCHAR char10
ENCODING 10
SWIDTH 0 0
DWIDTH 0 0
BBX 16 16 0 -4
BITMAP
FFFF
FFFF
F00F
F00F
C3C3
C3C3
CFF3
CFF3
CFF3
CFF3
C3C3
C3C3
F00F
F00F
FFFF
FFFF
ENDCHAR
STARTCHAR char11
ENCODING 11
SWIDTH 0 0
DWIDTH 0 0
BBX 16 16 0 -4
BITMAP
00FF
00FF
003F
003F
00FF
00FF
3FF3
3FF3
F0F0
F0F0
F0F0
F0F0
F0F0
F0F0
3FC0
3FC0
ENDCHAR
STARTCHAR char12
ENCODING 12
SWIDTH 0 0
DWIDTH 0 0
BBX 16 16 0 -4
BITMAP
0FF0
0FF0
3C3C
3C3C
3C3C
3C3C
3C3C
3C3C
0FF0
0FF0
03C0
03C0
3FFC
3FFC
03C0
03C0
ENDCHAR
STARTCHAR char13
ENCODING 13
SWIDTH 0 0
DWIDTH 0 0
BBX 16 16 0 -4
BITMAP
0FFF
0FFF
0F0F
0F0F
0FFF
0FFF
0F00
0F00
0F00
0F00
3F00
3F00
FF00
FF00
FC00
FC00
ENDCHAR
STARTCHAR char14
ENCODING 14
SWIDTH 0 0
DWIDTH 0 0
BBX 16 16 0 -4
BITMAP
3FFF
3FFF
3C0F
3C0F
3FFF
3FFF
3C0F
3C0F
3C0F
3C0F
3C3F
3C3F
FC3C
FC3C
F000
F000
ENDCHAR
STARTCHAR char15
ENCODING 15
SWIDTH 0 0
DWIDTH 0 0
BBX 16 16 0 -4
BITMAP
C3C3
C3C3
33CC
33CC
0FF0
0FF0
FC3F
FC3F
FC3F
FC3F
0FF0
0FF0
33CC
33CC
C3C3
C3C3
ENDCHAR
STARTCHAR char16
ENCODING 16
SWIDTH 0 0
DWIDTH 0 0
BBX 16 16 0 -4
BITMAP
C000
C000
FC00
FC00
FFC0
FFC0
FFFC
FFFC
FFC0
FFC0
FC00
FC00
C000
C000
0000
0000
ENDCHAR
STARTCHAR char17
ENCODING 17
SWIDTH 0 0
DWIDTH 0 0
BBX 16 16 0 -4
BITMAP
000C
000C
00FC
00FC
0FFC
0FFC
FFFC
FFFC
0FFC
0FFC
00FC
00FC
000C
000C
0000
0000
ENDCHAR
STARTCHAR char18
ENCODING 18
SWIDTH 0 0
DWIDTH 0 0
BBX 16 16 0 -4
BITMAP
03C0
03C0
0FF0
0FF0
3FFC
3FFC
03C0
03C0
03C0
03C0
3FFC
3FFC
0FF0
0FF0
03C0
03C0
ENDCHAR
STARTCHAR char19
ENCODING 19
SWIDTH 0 0
DWIDTH 0 0
BBX 16 16 0 -4
BITMAP
3C3C
3C3C
3C3C
3C3C
3C3C
3C3C
3C3C
3C3C
3C3C
3C3C
0000
0000
3C3C
3C3C
0000
0000
ENDCHAR
STARTCHAR char20
ENCODING 20
SWIDTH 0 0
DWIDTH 0 0
BBX 16 16 0 -4
BITMAP
3FFF
3FFF
F3CF
F3CF
F3CF
F3CF
3FCF
3FCF
03CF
03CF
03CF
03CF
03CF
03CF
0000
0000
ENDCHAR
STARTCHAR char21
ENCODING 21
SWIDTH 0 0
DWIDTH 0 0
BBX 16 16 0 -4
BITMAP
0FFC
0FFC
3C0F
3C0F
0FC0
0FC0
3CF0
3CF0
3CF0
3CF0
0FC0
0FC0
F0F0
F0F0
3FC0
3FC0
ENDCHAR
STARTCHAR char22
ENCODING 22
SWIDTH 0 0
DWIDTH 0 0
BBX 16 16 0 -4
BITMAP
0000
0000
0000
0000
0000
0000
0000
0000
3FFC
3FFC
3FFC
3FFC
3FFC
3FFC
0000
0000
ENDCHAR
STARTCHAR char23
ENCODING 23
SWIDTH 0 0
DWIDTH 0 0
BBX 16 16 0 -4
BITMAP
03C0
03C0
0FF0
0FF0
3FFC
3FFC
03C0
03C0
3FFC
3FFC
0FF0
0FF0
03C0
03C0
FFFF
FFFF
ENDCHAR
STARTCHAR char24
ENCODING 24
SWIDTH 0 0
DWIDTH 0 0
BBX 16 16 0 -4
BITMAP
03C0
03C0
0FF0
0FF0
3FFC
3FFC
03C0
03C0
03C0
03C0
03C0
03C0
03C0
03C0
0000
0000
ENDCHAR
STARTCHAR char25
ENCODING 25
SWIDTH 0 0
DWIDTH 0 0
BBX 16 16 0 -4
BITMAP
03C0
03C0
03C0
03C0
03C0
03C0
03C0
03C0
3FFC
3FFC
0FF0
0FF0
03C0
03C0
0000
0000
ENDCHAR
STARTCHAR char26
ENCODING 26
SWIDTH 0 0
DWIDTH 0 0
BBX 16 16 0 -4
BITMAP
0000
0000
03C0
03C0
00F0
00F0
FFFC
FFFC
00F0
00F0
03C0
03C0
0000
0000
0000
0000
ENDCHAR
STARTCHAR char27
ENCODING 27
SWIDTH 0 0
DWIDTH 0 0
BBX 16 16 0 -4
BITMAP
0000
0000
0F00
0F00
3C00
3C00
FFFC
FFFC
3C00
3C00
0F00
0F00
0000
0000
0000
0000
ENDCHAR
STARTCHAR char28
ENCODING 28
SWIDTH 0 0
DWIDTH 0 0
BBX 16 16 0 -4
BITMAP
0000
0000
0000
0000
F000
F000
F000
F000
F000
F000
FFFC
FFFC
0000
0000
0000
0000
ENDCHAR
STARTCHAR char29
ENCODING 29
SWIDTH 0 0
DWIDTH 0 0
BBX 16 16 0 -4
BITMAP
0000
0000
0C30
0C30
3C3C
3C3C
FFFF
FFFF
3C3C
3C3C
0C30
0C30
0000
0000
0000
0000
ENDCHAR
STARTCHAR char30
ENCODING 30
SWIDTH 0 0
DWIDTH 0 0
BBX 16 16 0 -4
BITMAP
0000
0000
03C0
03C0
0FF0
0FF0
3FFC
3FFC
FFFF
FFFF
FFFF
FFFF
0000
0000
0000
0000
ENDCHAR
STARTCHAR char31
ENCODING 31
SWIDTH 0 0
DWIDTH 0 0
BBX 16 16 0 -4
BITMAP
0000
0000
FFFF
FFFF
FFFF
FFFF
3FFC
3FFC
0FF0
0FF0
03C0
03C0
0000
0000
0000
0000
ENDCHAR
STARTCHAR char32
ENCODING 32
SWIDTH 0 0
DWIDTH 0 0
BBX 16 16 0 -4
BITMAP
0000
0000
0000
0000
0000
0000
0000
0000
0000
0000
0000
0000
0000
0000
0000
0000
ENDCHAR
STARTCHAR char33
ENCODING 33
SWIDTH 0 0
DWIDTH 0 0
BBX 16 16 0 -4
BITMAP
0F00
0F00
3FC0
3FC0
3FC0
3FC0
0F00
0F00
0F00
0F00
0000
0000
0F00
0F00
0000
0000
ENDCHAR
STARTCHAR char34
ENCODING 34
SWIDTH 0 0
DWIDTH 0 0
BBX 16 16 0 -4
BITMAP
3CF0
3CF0
3CF0
3CF0
3CF0
3CF0
0000
0000
0000
0000
0000
0000
0000
0000
0000
0000
ENDCHAR
STARTCHAR char35
ENCODING 35
SWIDTH 0 0
DWIDTH 0 0
BBX 16 16 0 -4
BITMAP
3CF0
3CF0
3CF0
3CF0
FFFC
FFFC
3CF0
3CF0
FFFC
FFFC
3CF0
3CF0
3CF0
3CF0
0000
0000
ENDCHAR
STARTCHAR char36
ENCODING 36
SWIDTH 0 0
DWIDTH 0 0
BBX 16 16 0 -4
BITMAP
0F00
0F00
3FF0
3FF0
F000
F000
3FC0
3FC0
00F0
00F0
FFC0
FFC0
0F00
0F00
0000
0000
ENDCHAR
STARTCHAR char37
ENCODING 37
SWIDTH 0 0
DWIDTH 0 0
BBX 16 16 0 -4
BITMAP
0000
0000
F03C
F03C
F0F0
F0F0
03C0
03C0
0F00
0F00
3C3C
3C3C
F03C
F03C
0000
0000
ENDCHAR
STARTCHAR char38
ENCODING 38
SWIDTH 0 0
DWIDTH 0 0
BBX 16 16 0 -4
BITMAP
0FC0
0FC0
3CF0
3CF0
0FC0
0FC0
3F3C
3F3C
F3F0
F3F0
F0F0
F0F0
3F3C
3F3C
0000
0000
ENDCHAR
STARTCHAR char39
ENCODING 39
SWIDTH 0 0
DWIDTH 0 0
BBX 16 16 0 -4
BITMAP
3C00
3C00
3C00
3C00
F000
F000
0000
0000
0000
0000
0000
0000
0000
0000
0000
0000
ENDCHAR
STARTCHAR char40
ENCODING 40
SWIDTH 0 0
DWIDTH 0 0
BBX 16 16 0 -4
BITMAP
03C0
03C0
0F00
0F00
3C00
3C00
3C00
3C00
3C00
3C00
0F00
0F00
03C0
03C0
0000
0000
ENDCHAR
STARTCHAR char41
ENCODING 41
SWIDTH 0 0
DWIDTH 0 0
BBX 16 16 0 -4
BITMAP
3C00
3C00
0F00
0F00
03C0
03C0
03C0
03C0
03C0
03C0
0F00
0F00
3C00
3C00
0000
0000
ENDCHAR
STARTCHAR char42
ENCODING 42
SWIDTH 0 0
DWIDTH 0 0
BBX 16 16 0 -4
BITMAP
0000
0000
3C3C
3C3C
0FF0
0FF0
FFFF
FFFF
0FF0
0FF0
3C3C
3C3C
0000
0000
0000
0000
ENDCHAR
STARTCHAR char43
ENCODING 43
SWIDTH 0 0
DWIDTH 0 0
BBX 16 16 0 -4
BITMAP
0000
0000
0F00
0F00
0F00
0F00
FFF0
FFF0
0F00
0F00
0F00
0F00
0000
0000
0000
0000
ENDCHAR
STARTCHAR char44
ENCODING 44
SWIDTH 0 0
DWIDTH 0 0
BBX 16 16 0 -4
BITMAP
0000
0000
0000
0000
0000
0000
0000
0000
0000
0000
0F00
0F00
0F00
0F00
3C00
3C00
ENDCHAR
STARTCHAR char45
ENCODING 45
SWIDTH 0 0
DWIDTH 0 0
BBX 16 16 0 -4
BITMAP
0000
0000
0000
0000
0000
0000
FFF0
FFF0
0000
0000
0000
0000
0000
0000
0000
0000
ENDCHAR
STARTCHAR char46
ENCODING 46
SWIDTH 0 0
DWIDTH 0 0
BBX 16 16 0 -4
BITMAP
0000
0000
0000
0000
0000
0000
0000
0000
0000
0000
0F00
0F00
0F00
0F00
0000
0000
ENDCHAR
STARTCHAR char47
ENCODING 47
SWIDTH 0 0
DWIDTH 0 0
BBX 16 16 0 -4
BITMAP
003C
003C
00F0
00F0
03C0
03C0
0F00
0F00
3C00
3C00
F000
F000
C000
C000
0000
0000
ENDCHAR
STARTCHAR char48
ENCODING 48
SWIDTH 0 0
DWIDTH 0 0
BBX 16 16 0 -4
BITMAP
3FF0
3FF0
F03C
F03C
F0FC
F0FC
F3FC
F3FC
FF3C
FF3C
FC3C
FC3C
3FF0
3FF0
0000
0000
ENDCHAR
STARTCHAR char49
ENCODING 49
SWIDTH 0 0
DWIDTH 0 0
BBX 16 16 0 -4
BITMAP
0F00
0F00
3F00
3F00
0F00
0F00
0F00
0F00
0F00
0F00
0F00
0F00
FFF0
FFF0
0000
0000
ENDCHAR
STARTCHAR char50
ENCODING 50
SWIDTH 0 0
DWIDTH 0 0
BBX 16 16 0 -4
BITMAP
3FC0
3FC0
F0F0
F0F0
00F0
00F0
0FC0
0FC0
3C00
3C00
F0F0
F0F0
FFF0
FFF0
0000
0000
ENDCHAR
STARTCHAR char51
ENCODING 51
SWIDTH 0 0
DWIDTH 0 0
BBX 16 16 0 -4
BITMAP
3FC0
3FC0
F0F0
F0F0
00F0
00F0
0FC0
0FC0
00F0
00F0
F0F0
F0F0
3FC0
3FC0
0000
0000
ENDCHAR
STARTCHAR char52
ENCODING 52
SWIDTH 0 0
DWIDTH 0 0
BBX 16 16 0 -4
BITMAP
03F0
03F0
0FF0
0FF0
3CF0
3CF0
F0F0
F0F0
FFFC
FFFC
00F0
00F0
03FC
03FC
0000
0000
ENDCHAR
STARTCHAR char53
ENCODING 53
SWIDTH 0 0
DWIDTH 0 0
BBX 16 16 0 -4
BITMAP
FFF0
FFF0
F000
F000
FFC0
FFC0
00F0
00F0
00F0
00F0
F0F0
F0F0
3FC0
3FC0
0000
0000
ENDCHAR
STARTCHAR char54
ENCODING 54
SWIDTH 0 0
DWIDTH 0 0
BBX 16 16 0 -4
BITMAP
0FC0
0FC0
3C00
3C00
F000
F000
FFC0
FFC0
F0F0
F0F0
F0F0
F0F0
3FC0
3FC0
0000
0000
ENDCHAR
STARTCHAR char55
ENCODING 55
SWIDTH 0 0
DWIDTH 0 0
BBX 16 16 0 -4
BITMAP
FFF0
FFF0
F0F0
F0F0
00F0
00F0
03C0
03C0
0F00
0F00
0F00
0F00
0F00
0F00
0000
0000
ENDCHAR
STARTCHAR char56
ENCODING 56
SWIDTH 0 0
DWIDTH 0 0
BBX 16 16 0 -4
BITMAP
3FC0
3FC0
F0F0
F0F0
F0F0
F0F0
3FC0
3FC0
F0F0
F0F0
F0F0
F0F0
3FC0
3FC0
0000
0000
ENDCHAR
STARTCHAR char57
ENCODING 57
SWIDTH 0 0
DWIDTH 0 0
BBX 16 16 0 -4
BITMAP
3FC0
3FC0
F0F0
F0F0
F0F0
F0F0
3FF0
3FF0
00F0
00F0
03C0
03C0
3F00
3F00
0000
0000
ENDCHAR
STARTCHAR char58
ENCODING 58
SWIDTH 0 0
DWIDTH 0 0
BBX 16 16 0 -4
BITMAP
0000
0000
0F00
0F00
0F00
0F00
0000
0000
0000
0000
0F00
0F00
0F00
0F00
0000
0000
ENDCHAR
STARTCHAR char59
ENCODING 59
SWIDTH 0 0
DWIDTH 0 0
BBX 16 16 0 -4
BITMAP
0000
0000
0F00
0F00
0F00
0F00
0000
0000
0000
0000
0F00
0F00
0F00
0F00
3C00
3C00
ENDCHAR
STARTCHAR char60
ENCODING 60
SWIDTH 0 0
DWIDTH 0 0
BBX 16 16 0 -4
BITMAP
03C0
03C0
0F00
0F00
3C00
3C00
F000
F000
3C00
3C00
0F00
0F00
03C0
03C0
0000
0000
ENDCHAR
STARTCHAR char61
ENCODING 61
SWIDTH 0 0
DWIDTH 0 0
BBX 16 16 0 -4
BITMAP
0000
0000
0000
0000
FFF0
FFF0
0000
0000
0000
0000
FFF0
FFF0
0000
0000
0000
0000
ENDCHAR
STARTCHAR char62
ENCODING 62
SWIDTH 0 0
DWIDTH 0 0
BBX 16 16 0 -4
BITMAP
3C00
3C00
0F00
0F00
03C0
03C0
00F0
00F0
03C0
03C0
0F00
0F00
3C00
3C00
0000
0000
ENDCHAR
STARTCHAR char63
ENCODING 63
SWIDTH 0 0
DWIDTH 0 0
BBX 16 16 0 -4
BITMAP
3FC0
3FC0
F0F0
F0F0
00F0
00F0
03C0
03C0
0F00
0F00
0000
0000
0F00
0F00
0000
0000
ENDCHAR
STARTCHAR char64
ENCODING 64
SWIDTH 0 0
DWIDTH 0 0
BBX 16 16 0 -4
BITMAP
3FF0
3FF0
F03C
F03C
F3FC
F3FC
F3FC
F3FC
F3FC
F3FC
F000
F000
3FC0
3FC0
0000
0000
ENDCHAR
STARTCHAR char65
ENCODING 65
SWIDTH 0 0
DWIDTH 0 0
BBX 16 16 0 -4
BITMAP
0F00
0F00
3FC0
3FC0
F0F0
F0F0
F0F0
F0F0
FFF0
FFF0
F0F0
F0F0
F0F0
F0F0
0000
0000
ENDCHAR
STARTCHAR char66
ENCODING 66
SWIDTH 0 0
DWIDTH 0 0
BBX 16 16 0 -4
BITMAP
FFF0
FFF0
3C3C
3C3C
3C3C
3C3C
3FF0
3FF0
3C3C
3C3C
3C3C
3C3C
FFF0
FFF0
0000
0000
ENDCHAR
STARTCHAR char67
ENCODING 67
SWIDTH 0 0
DWIDTH 0 0
BBX 16 16 0 -4
BITMAP
0FF0
0FF0
3C3C
3C3C
F000
F000
F000
F000
F000
F000
3C3C
3C3C
0FF0
0FF0
0000
0000
ENDCHAR
STARTCHAR char68
ENCODING 68
SWIDTH 0 0
DWIDTH 0 0
BBX 16 16 0 -4
BITMAP
FFC0
FFC0
3CF0
3CF0
3C3C
3C3C
3C3C
3C3C
3C3C
3C3C
3CF0
3CF0
FFC0
FFC0
0000
0000
ENDCHAR
STARTCHAR char69
ENCODING 69
SWIDTH 0 0
DWIDTH 0 0
BBX 16 16 0 -4
BITMAP
FFFC
FFFC
3C0C
3C0C
3CC0
3CC0
3FC0
3FC0
3CC0
3CC0
3C0C
3C0C
FFFC
FFFC
0000
0000
ENDCHAR
STARTCHAR char70
ENCODING 70
SWIDTH 0 0
DWIDTH 0 0
BBX 16 16 0 -4
BITMAP
FFFC
FFFC
3C0C
3C0C
3CC0
3CC0
3FC0
3FC0
3CC0
3CC0
3C00
3C00
FF00
FF00
0000
0000
ENDCHAR
STARTCHAR char71
ENCODING 71
SWIDTH 0 0
DWIDTH 0 0
BBX 16 16 0 -4
BITMAP
0FF0
0FF0
3C3C
3C3C
F000
F000
F000
F000
F0FC
F0FC
3C3C
3C3C
0FFC
0FFC
0000
0000
ENDCHAR
STARTCHAR char72
ENCODING 72
SWIDTH 0 0
DWIDTH 0 0
BBX 16 16 0 -4
BITMAP
F0F0
F0F0
F0F0
F0F0
F0F0
F0F0
FFF0
FFF0
F0F0
F0F0
F0F0
F0F0
F0F0
F0F0
0000
0000
ENDCHAR
STARTCHAR char73
ENCODING 73
SWIDTH 0 0
DWIDTH 0 0
BBX 16 16 0 -4
BITMAP
3FC0
3FC0
0F00
0F00
0F00
0F00
0F00
0F00
0F00
0F00
0F00
0F00
3FC0
3FC0
0000
0000
ENDCHAR
STARTCHAR char74
ENCODING 74
SWIDTH 0 0
DWIDTH 0 0
BBX 16 16 0 -4
BITMAP
03FC
03FC
00F0
00F0
00F0
00F0
00F0
00F0
F0F0
F0F0
F0F0
F0F0
3FC0
3FC0
0000
0000
ENDCHAR
STARTCHAR char75
ENCODING 75
SWIDTH 0 0
DWIDTH 0 0
BBX 16 16 0 -4
BITMAP
FC3C
FC3C
3C3C
3C3C
3CF0
3CF0
3FC0
3FC0
3CF0
3CF0
3C3C
3C3C
FC3C
FC3C
0000
0000
ENDCHAR
STARTCHAR char76
ENCODING 76
SWIDTH 0 0
DWIDTH 0 0
BBX 16 16 0 -4
BITMAP
FF00
FF00
3C00
3C00
3C00
3C00
3C00
3C00
3C0C
3C0C
3C3C
3C3C
FFFC
FFFC
0000
0000
ENDCHAR
STARTCHAR char77
ENCODING 77
SWIDTH 0 0
DWIDTH 0 0
BBX 16 16 0 -4
BITMAP
F03C
F03C
FCFC
FCFC
FFFC
FFFC
FFFC
FFFC
F33C
F33C
F03C
F03C
F03C
F03C
0000
0000
ENDCHAR
STARTCHAR char78
ENCODING 78
SWIDTH 0 0
DWIDTH 0 0
BBX 16 16 0 -4
BITMAP
F03C
F03C
FC3C
FC3C
FF3C
FF3C
F3FC
F3FC
F0FC
F0FC
F03C
F03C
F03C
F03C
0000
0000
ENDCHAR
STARTCHAR char79
ENCODING 79
SWIDTH 0 0
DWIDTH 0 0
BBX 16 16 0 -4
BITMAP
0FC0
0FC0
3CF0
3CF0
F03C
F03C
F03C
F03C
F03C
F03C
3CF0
3CF0
0FC0
0FC0
0000
0000
ENDCHAR
STARTCHAR char80
ENCODING 80
SWIDTH 0 0
DWIDTH 0 0
BBX 16 16 0 -4
BITMAP
FFF0
FFF0
3C3C
3C3C
3C3C
3C3C
3FF0
3FF0
3C00
3C00
3C00
3C00
FF00
FF00
0000
0000
ENDCHAR
STARTCHAR char81
ENCODING 81
SWIDTH 0 0
DWIDTH 0 0
BBX 16 16 0 -4
BITMAP
3FC0
3FC0
F0F0
F0F0
F0F0
F0F0
F0F0
F0F0
F3F0
F3F0
3FC0
3FC0
03F0
03F0
0000
0000
ENDCHAR
STARTCHAR char82
ENCODING 82
SWIDTH 0 0
DWIDTH 0 0
BBX 16 16 0 -4
BITMAP
FFF0
FFF0
3C3C
3C3C
3C3C
3C3C
3FF0
3FF0
3CF0
3CF0
3C3C
3C3C
FC3C
FC3C
0000
0000
ENDCHAR
STARTCHAR char83
ENCODING 83
SWIDTH 0 0
DWIDTH 0 0
BBX 16 16 0 -4
BITMAP
3FC0
3FC0
F0F0
F0F0
FC00
FC00
3F00
3F00
03F0
03F0
F0F0
F0F0
3FC0
3FC0
0000
0000
ENDCHAR
STARTCHAR char84
ENCODING 84
SWIDTH 0 0
DWIDTH 0 0
BBX 16 16 0 -4
BITMAP
FFF0
FFF0
CF30
CF30
0F00
0F00
0F00
0F00
0F00
0F00
0F00
0F00
3FC0
3FC0
0000
0000
ENDCHAR
STARTCHAR char85
ENCODING 85
SWIDTH 0 0
DWIDTH 0 0
BBX 16 16 0 -4
BITMAP
F0F0
F0F0
F0F0
F0F0
F0F0
F0F0
F0F0
F0F0
F0F0
F0F0
F0F0
F0F0
FFF0
FFF0
0000
0000
ENDCHAR
STARTCHAR char86
ENCODING 86
SWIDTH 0 0
DWIDTH 0 0
BBX 16 16 0 -4
BITMAP
F0F0
F0F0
F0F0
F0F0
F0F0
F0F0
F0F0
F0F0
F0F0
F0F0
3FC0
3FC0
0F00
0F00
0000
0000
ENDCHAR
STARTCHAR char87
ENCODING 87
SWIDTH 0 0
DWIDTH 0 0
BBX 16 16 0 -4
BITMAP
F03C
F03C
F03C
F03C
F03C
F03C
F33C
F33C
FFFC
FFFC
FCFC
FCFC
F03C
F03C
0000
0000
ENDCHAR
STARTCHAR char88
ENCODING 88
SWIDTH 0 0
DWIDTH 0 0
BBX 16 16 0 -4
BITMAP
F03C
F03C
F03C
F03C
3CF0
3CF0
0FC0
0FC0
0FC0
0FC0
3CF0
3CF0
F03C
F03C
0000
0000
ENDCHAR
STARTCHAR char89
ENCODING 89
SWIDTH 0 0
DWIDTH 0 0
BBX 16 16 0 -4
BITMAP
F0F0
F0F0
F0F0
F0F0
F0F0
F0F0
3FC0
3FC0
0F00
0F00
0F00
0F00
3FC0
3FC0
0000
0000
ENDCHAR
STARTCHAR char90
ENCODING 90
SWIDTH 0 0
DWIDTH 0 0
BBX 16 16 0 -4
BITMAP
FFFC
FFFC
F03C
F03C
C0F0
C0F0
03C0
03C0
0F0C
0F0C
3C3C
3C3C
FFFC
FFFC
0000
0000
ENDCHAR
STARTCHAR char91
ENCODING 91
SWIDTH 0 0
DWIDTH 0 0
BBX 16 16 0 -4
BITMAP
3FC0
3FC0
3C00
3C00
3C00
3C00
3C00
3C00
3C00
3C00
3C00
3C00
3FC0
3FC0
0000
0000
ENDCHAR
STARTCHAR char92
ENCODING 92
SWIDTH 0 0
DWIDTH 0 0
BBX 16 16 0 -4
BITMAP
F000
F000
3C00
3C00
0F00
0F00
03C0
03C0
00F0
00F0
003C
003C
000C
000C
0000
0000
ENDCHAR
STARTCHAR char93
ENCODING 93
SWIDTH 0 0
DWIDTH 0 0
BBX 16 16 0 -4
BITMAP
3FC0
3FC0
03C0
03C0
03C0
03C0
03C0
03C0
03C0
03C0
03C0
03C0
3FC0
3FC0
0000
0000
ENDCHAR
STARTCHAR char94
ENCODING 94
SWIDTH 0 0
DWIDTH 0 0
BBX 16 16 0 -4
BITMAP
0300
0300
0FC0
0FC0
3CF0
3CF0
F03C
F03C
0000
0000
0000
0000
0000
0000
0000
0000
ENDCHAR
STARTCHAR char95
ENCODING 95
SWIDTH 0 0
DWIDTH 0 0
BBX 16 16 0 -4
BITMAP
0000
0000
0000
0000
0000
0000
0000
0000
0000
0000
0000
0000
0000
0000
FFFF
FFFF
ENDCHAR
STARTCHAR char96
ENCODING 96
SWIDTH 0 0
DWIDTH 0 0
BBX 16 16 0 -4
BITMAP
0F00
0F00
0F00
0F00
03C0
03C0
0000
0000
0000
0000
0000
0000
0000
0000
0000
0000
ENDCHAR
STARTCHAR char97
ENCODING 97
SWIDTH 0 0
DWIDTH 0 0
BBX 16 16 0 -4
BITMAP
0000
0000
0000
0000
3FC0
3FC0
00F0
00F0
3FF0
3FF0
F0F0
F0F0
3F3C
3F3C
0000
0000
ENDCHAR
STARTCHAR char98
ENCODING 98
SWIDTH 0 0
DWIDTH 0 0
BBX 16 16 0 -4
BITMAP
FC00
FC00
3C00
3C00
3C00
3C00
3FF0
3FF0
3C3C
3C3C
3C3C
3C3C
F3F0
F3F0
0000
0000
ENDCHAR
STARTCHAR char99
ENCODING 99
SWIDTH 0 0
DWIDTH 0 0
BBX 16 16 0 -4
BITMAP
0000
0000
0000
0000
3FC0
3FC0
F0F0
F0F0
F000
F000
F0F0
F0F0
3FC0
3FC0
0000
0000
ENDCHAR
STARTCHAR char100
ENCODING 100
SWIDTH 0 0
DWIDTH 0 0
BBX 16 16 0 -4
BITMAP
03F0
03F0
00F0
00F0
00F0
00F0
3FF0
3FF0
F0F0
F0F0
F0F0
F0F0
3F3C
3F3C
0000
0000
ENDCHAR
STARTCHAR char101
ENCODING 101
SWIDTH 0 0
DWIDTH 0 0
BBX 16 16 0 -4
BITMAP
0000
0000
0000
0000
3FC0
3FC0
F0F0
F0F0
FFF0
FFF0
F000
F000
3FC0
3FC0
0000
0000
ENDCHAR
STARTCHAR char102
ENCODING 102
SWIDTH 0 0
DWIDTH 0 0
BBX 16 16 0 -4
BITMAP
0FC0
0FC0
3CF0
3CF0
3C00
3C00
FF00
FF00
3C00
3C00
3C00
3C00
FF00
FF00
0000
0000
ENDCHAR
STARTCHAR char103
ENCODING 103
SWIDTH 0 0
DWIDTH 0 0
BBX 16 16 0 -4
BITMAP
0000
0000
0000
0000
3F3C
3F3C
F0F0
F0F0
F0F0
F0F0
3FF0
3FF0
00F0
00F0
FFC0
FFC0
ENDCHAR
STARTCHAR char104
ENCODING 104
SWIDTH 0 0
DWIDTH 0 0
BBX 16 16 0 -4
BITMAP
FC00
FC00
3C00
3C00
3CF0
3CF0
3F3C
3F3C
3C3C
3C3C
3C3C
3C3C
FC3C
FC3C
0000
0000
ENDCHAR
STARTCHAR char105
ENCODING 105
SWIDTH 0 0
DWIDTH 0 0
BBX 16 16 0 -4
BITMAP
0F00
0F00
0000
0000
3F00
3F00
0F00
0F00
0F00
0F00
0F00
0F00
3FC0
3FC0
0000
0000
ENDCHAR
STARTCHAR char106
ENCODING 106
SWIDTH 0 0
DWIDTH 0 0
BBX 16 16 0 -4
BITMAP
00F0
00F0
0000
0000
00F0
00F0
00F0
00F0
00F0
00F0
F0F0
F0F0
F0F0
F0F0
3FC0
3FC0
ENDCHAR
STARTCHAR char107
ENCODING 107
SWIDTH 0 0
DWIDTH 0 0
BBX 16 16 0 -4
BITMAP
FC00
FC00
3C00
3C00
3C3C
3C3C
3CF0
3CF0
3FC0
3FC0
3CF0
3CF0
FC3C
FC3C
0000
0000
ENDCHAR
STARTCHAR char108
ENCODING 108
SWIDTH 0 0
DWIDTH 0 0
BBX 16 16 0 -4
BITMAP
3F00
3F00
0F00
0F00
0F00
0F00
0F00
0F00
0F00
0F00
0F00
0F00
3FC0
3FC0
0000
0000
ENDCHAR
STARTCHAR char109
ENCODING 109
SWIDTH 0 0
DWIDTH 0 0
BBX 16 16 0 -4
BITMAP
0000
0000
0000
0000
F0F0
F0F0
FFFC
FFFC
FFFC
FFFC
F33C
F33C
F03C
F03C
0000
0000
ENDCHAR
STARTCHAR char110
ENCODING 110
SWIDTH 0 0
DWIDTH 0 0
BBX 16 16 0 -4
BITMAP
0000
0000
0000
0000
FFC0
FFC0
F0F0
F0F0
F0F0
F0F0
F0F0
F0F0
F0F0
F0F0
0000
0000
ENDCHAR
STARTCHAR char111
ENCODING 111
SWIDTH 0 0
DWIDTH 0 0
BBX 16 16 0 -4
BITMAP
0000
0000
0000
0000
3FC0
3FC0
F0F0
F0F0
F0F0
F0F0
F0F0
F0F0
3FC0
3FC0
0000
0000
ENDCHAR
STARTCHAR char112
ENCODING 112
SWIDTH 0 0
DWIDTH 0 0
BBX 16 16 0 -4
BITMAP
0000
0000
0000
0000
F3F0
F3F0
3C3C
3C3C
3C3C
3C3C
3FF0
3FF0
3C00
3C00
FF00
FF00
ENDCHAR
STARTCHAR char113
ENCODING 113
SWIDTH 0 0
DWIDTH 0 0
BBX 16 16 0 -4
BITMAP
0000
0000
0000
0000
3F3C
3F3C
F0F0
F0F0
F0F0
F0F0
3FF0
3FF0
00F0
00F0
03FC
03FC
ENDCHAR
STARTCHAR char114
ENCODING 114
SWIDTH 0 0
DWIDTH 0 0
BBX 16 16 0 -4
BITMAP
0000
0000
0000
0000
F3F0
F3F0
3F3C
3F3C
3C3C
3C3C
3C00
3C00
FF00
FF00
0000
0000
ENDCHAR
STARTCHAR char115
ENCODING 115
SWIDTH 0 0
DWIDTH 0 0
BBX 16 16 0 -4
BITMAP
0000
0000
0000
0000
3FF0
3FF0
F000
F000
3FC0
3FC0
00F0
00F0
FFC0
FFC0
0000
0000
ENDCHAR
STARTCHAR char116
ENCODING 116
SWIDTH 0 0
DWIDTH 0 0
BBX 16 16 0 -4
BITMAP
0300
0300
0F00
0F00
3FF0
3FF0
0F00
0F00
0F00
0F00
0F30
0F30
03C0
03C0
0000
0000
ENDCHAR
STARTCHAR char117
ENCODING 117
SWIDTH 0 0
DWIDTH 0 0
BBX 16 16 0 -4
BITMAP
0000
0000
0000
0000
F0F0
F0F0
F0F0
F0F0
F0F0
F0F0
F0F0
F0F0
3F3C
3F3C
0000
0000
ENDCHAR
STARTCHAR char118
ENCODING 118
SWIDTH 0 0
DWIDTH 0 0
BBX 16 16 0 -4
BITMAP
0000
0000
0000
0000
F0F0
F0F0
F0F0
F0F0
F0F0
F0F0
3FC0
3FC0
0F00
0F00
0000
0000
ENDCHAR
STARTCHAR char119
ENCODING 119
SWIDTH 0 0
DWIDTH 0 0
BBX 16 16 0 -4
BITMAP
0000
0000
0000
0000
F03C
F03C
F33C
F33C
FFFC
FFFC
FFFC
FFFC
3CF0
3CF0
0000
0000
ENDCHAR
STARTCHAR char120
ENCODING 120
SWIDTH 0 0
DWIDTH 0 0
BBX 16 16 0 -4
BITMAP
0000
0000
0000
0000
F03C
F03C
3CF0
3CF0
0FC0
0FC0
3CF0
3CF0
F03C
F03C
0000
0000
ENDCHAR
STARTCHAR char121
ENCODING 121
SWIDTH 0 0
DWIDTH 0 0
BBX 16 16 0 -4
BITMAP
0000
0000
0000
0000
F0F0
F0F0
F0F0
F0F0
F0F0
F0F0
3FF0
3FF0
00F0
00F0
FFC0
FFC0
ENDCHAR
STARTCHAR char122
ENCODING 122
SWIDTH 0 0
DWIDTH 0 0
BBX 16 16 0 -4
BITMAP
0000
0000
0000
0000
FFF0
FFF0
C3C0
C3C0
0F00
0F00
3C30
3C30
FFF0
FFF0
0000
0000
ENDCHAR
STARTCHAR char123
ENCODING 123
SWIDTH 0 0
DWIDTH 0 0
BBX 16 16 0 -4
BITMAP
03F0
03F0
0F00
0F00
0F00
0F00
FC00
FC00
0F00
0F00
0F00
0F00
03F0
03F0
0000
0000
ENDCHAR
STARTCHAR char124
ENCODING 124
SWIDTH 0 0
DWIDTH 0 0
BBX 16 16 0 -4
BITMAP
03C0
03C0
03C0
03C0
03C0
03C0
0000
0000
03C0
03C0
03C0
03C0
03C0
03C0
0000
0000
ENDCHAR
STARTCHAR char125
ENCODING 125
SWIDTH 0 0
DWIDTH 0 0
BBX 16 16 0 -4
BITMAP
FC00
FC00
0F00
0F00
0F00
0F00
03F0
03F0
0F00
0F00
0F00
0F00
FC00
FC00
0000
0000
ENDCHAR
STARTCHAR char126
ENCODING 126
SWIDTH 0 0
DWIDTH 0 0
BBX 16 16 0 -4
BITMAP
3F3C
3F3C
F3F0
F3F0
0000
0000
0000
0000
0000
0000
0000
0000
0000
0000
0000
0000
ENDCHAR
STARTCHAR char127
ENCODING 127
SWIDTH 0 0
DWIDTH 0 0
BBX 16 16 0 -4
BITMAP
0000
0000
0300
0300
0FC0
0FC0
3CF0
3CF0
F03C
F03C
F03C
F03C
FFFC
FFFC
0000
0000
ENDCHAR
STARTCHAR char128
ENCODING 128
SWIDTH 0 0
DWIDTH 0 0
BBX 16 16 0 -4
BITMAP
0000
0000
0000
0000
0000
0000
0000
0000
0000
0000
0000
0000
0000
0000
0000
0000
ENDCHAR
STARTCHAR char129
ENCODING 129
SWIDTH 0 0
DWIDTH 0 0
BBX 16 16 0 -4
BITMAP
0000
0000
0000
0000
0FF0
0FF0
3FFC
3FFC
FFFF
FFFF
3FFC
3FFC
03C0
03C0
0000
0000
ENDCHAR
STARTCHAR char130
ENCODING 130
SWIDTH 0 0
DWIDTH 0 0
BBX 16 16 0 -4
BITMAP
CCCC
CCCC
3333
3333
3333
3333
CCCC
CCCC
CCCC
CCCC
3333
3333
3333
3333
CCCC
CCCC
ENDCHAR
STARTCHAR char131
ENCODING 131
SWIDTH 0 0
DWIDTH 0 0
BBX 16 16 0 -4
BITMAP
3030
3030
3030
3030
3030
3030
3030
3030
03FF
03FF
0030
0030
0030
0030
0030
0030
ENDCHAR
STARTCHAR char132
ENCODING 132
SWIDTH 0 0
DWIDTH 0 0
BBX 16 16 0 -4
BITMAP
3FF0
3FF0
3000
3000
3000
3000
3000
3000
03FF
03FF
0300
0300
0300
0300
0300
0300
ENDCHAR
STARTCHAR char133
ENCODING 133
SWIDTH 0 0
DWIDTH 0 0
BBX 16 16 0 -4
BITMAP
0FC0
0FC0
3030
3030
3030
3030
0FC0
0FC0
03FC
03FC
0303
0303
0330
0330
030F
030F
ENDCHAR
STARTCHAR char134
ENCODING 134
SWIDTH 0 0
DWIDTH 0 0
BBX 16 16 0 -4
BITMAP
3000
3000
3000
3000
3000
3000
3FF0
3FF0
03FF
03FF
0300
0300
0300
0300
0300
0300
ENDCHAR
STARTCHAR char135
ENCODING 135
SWIDTH 0 0
DWIDTH 0 0
BBX 16 16 0 -4
BITMAP
0FC0
0FC0
3CF0
3CF0
0FC0
0FC0
0000
0000
0000
0000
0000
0000
0000
0000
0000
0000
ENDCHAR
STARTCHAR char136
ENCODING 136
SWIDTH 0 0
DWIDTH 0 0
BBX 16 16 0 -4
BITMAP
0000
0000
0000
0000
03C0
03C0
03C0
03C0
03C0
03C0
03C0
03C0
3FFC
3FFC
0000
0000
ENDCHAR
STARTCHAR char137
ENCODING 137
SWIDTH 0 0
DWIDTH 0 0
BBX 16 16 0 -4
BITMAP
3030
3030
3C30
3C30
30F0
30F0
3030
3030
0300
0300
0300
0300
0300
0300
03FF
03FF
ENDCHAR
STARTCHAR char138
ENCODING 138
SWIDTH 0 0
DWIDTH 0 0
BBX 16 16 0 -4
BITMAP
3030
3030
3030
3030
0CC0
0CC0
0300
0300
03FF
03FF
0030
0030
0030
0030
0030
0030
ENDCHAR
STARTCHAR char139
ENCODING 139
SWIDTH 0 0
DWIDTH 0 0
BBX 16 16 0 -4
BITMAP
03C0
03C0
03C0
03C0
03C0
03C0
03C0
03C0
FFC0
FFC0
0000
0000
0000
0000
0000
0000
ENDCHAR
STARTCHAR char140
ENCODING 140
SWIDTH 0 0
DWIDTH 0 0
BBX 16 16 0 -4
BITMAP
0000
0000
0000
0000
0000
0000
0000
0000
FFC0
FFC0
03C0
03C0
03C0
03C0
03C0
03C0
ENDCHAR
STARTCHAR char141
ENCODING 141
SWIDTH 0 0
DWIDTH 0 0
BBX 16 16 0 -4
BITMAP
0000
0000
0000
0000
0000
0000
0000
0000
03FF
03FF
03C0
03C0
03C0
03C0
03C0
03C0
ENDCHAR
STARTCHAR char142
ENCODING 142
SWIDTH 0 0
DWIDTH 0 0
BBX 16 16 0 -4
BITMAP
03C0
03C0
03C0
03C0
03C0
03C0
03C0
03C0
03FF
03FF
0000
0000
0000
0000
0000
0000
ENDCHAR
STARTCHAR char143
ENCODING 143
SWIDTH 0 0
DWIDTH 0 0
BBX 16 16 0 -4
BITMAP
03C0
03C0
03C0
03C0
03C0
03C0
03C0
03C0
FFFF
FFFF
03C0
03C0
03C0
03C0
03C0
03C0
ENDCHAR
STARTCHAR char144
ENCODING 144
SWIDTH 0 0
DWIDTH 0 0
BBX 16 16 0 -4
BITMAP
0000
0000
0000
0000
0000
0000
0000
0000
0000
0000
0000
0000
0000
0000
0000
0000
ENDCHAR
STARTCHAR char145
ENCODING 145
SWIDTH 0 0
DWIDTH 0 0
BBX 16 16 0 -4
BITMAP
0000
0000
0000
0000
0000
0000
0000
0000
0000
0000
0000
0000
0000
0000
0000
0000
ENDCHAR
STARTCHAR char146
ENCODING 146
SWIDTH 0 0
DWIDTH 0 0
BBX 16 16 0 -4
BITMAP
0000
0000
0000
0000
0000
0000
0000
0000
FFFF
FFFF
0000
0000
0000
0000
0000
0000
ENDCHAR
STARTCHAR char147
ENCODING 147
SWIDTH 0 0
DWIDTH 0 0
BBX 16 16 0 -4
BITMAP
0000
0000
0000
0000
0000
0000
0000
0000
0000
0000
0000
0000
FFFF
FFFF
0000
0000
ENDCHAR
STARTCHAR char148
ENCODING 148
SWIDTH 0 0
DWIDTH 0 0
BBX 16 16 0 -4
BITMAP
0000
0000
0000
0000
0000
0000
0000
0000
0000
0000
0000
0000
0000
0000
0000
0000
ENDCHAR
STARTCHAR char149
ENCODING 149
SWIDTH 0 0
DWIDTH 0 0
BBX 16 16 0 -4
BITMAP
03C0
03C0
03C0
03C0
03C0
03C0
03C0
03C0
03FF
03FF
03C0
03C0
03C0
03C0
03C0
03C0
ENDCHAR
STARTCHAR char150
ENCODING 150
SWIDTH 0 0
DWIDTH 0 0
BBX 16 16 0 -4
BITMAP
03C0
03C0
03C0
03C0
03C0
03C0
03C0
03C0
FFC0
FFC0
03C0
03C0
03C0
03C0
03C0
03C0
ENDCHAR
STARTCHAR char151
ENCODING 151
SWIDTH 0 0
DWIDTH 0 0
BBX 16 16 0 -4
BITMAP
03C0
03C0
03C0
03C0
03C0
03C0
03C0
03C0
FFFF
FFFF
0000
0000
0000
0000
0000
0000
ENDCHAR
STARTCHAR char152
ENCODING 152
SWIDTH 0 0
DWIDTH 0 0
BBX 16 16 0 -4
BITMAP
0000
0000
0000
0000
0000
0000
0000
0000
FFFF
FFFF
03C0
03C0
03C0
03C0
03C0
03C0
ENDCHAR
STARTCHAR char153
ENCODING 153
SWIDTH 0 0
DWIDTH 0 0
BBX 16 16 0 -4
BITMAP
03C0
03C0
03C0
03C0
03C0
03C0
03C0
03C0
03C0
03C0
03C0
03C0
03C0
03C0
03C0
03C0
ENDCHAR
STARTCHAR char154
ENCODING 154
SWIDTH 0 0
DWIDTH 0 0
BBX 16 16 0 -4
BITMAP
0000
0000
00F0
00F0
0F00
0F00
3C00
3C00
03C0
03C0
00F0
00F0
3FFC
3FFC
0000
0000
ENDCHAR
STARTCHAR char155
ENCODING 155
SWIDTH 0 0
DWIDTH 0 0
BBX 16 16 0 -4
BITMAP
0000
0000
0F00
0F00
00F0
00F0
003C
003C
03C0
03C0
0F00
0F00
3FFC
3FFC
0000
0000
ENDCHAR
STARTCHAR char156
ENCODING 156
SWIDTH 0 0
DWIDTH 0 0
BBX 16 16 0 -4
BITMAP
0000
0000
0000
0000
000F
000F
0FFC
0FFC
0F3C
0F3C
0F3C
0F3C
3CF0
3CF0
0000
0000
ENDCHAR
STARTCHAR char157
ENCODING 157
SWIDTH 0 0
DWIDTH 0 0
BBX 16 16 0 -4
BITMAP
0000
0000
0000
0000
0030
0030
3FFC
3FFC
0300
0300
3FFC
3FFC
3000
3000
0000
0000
ENDCHAR
STARTCHAR char158
ENCODING 158
SWIDTH 0 0
DWIDTH 0 0
BBX 16 16 0 -4
BITMAP
0000
0000
03F0
03F0
0F00
0F00
0F00
0F00
0F00
0F00
0F00
0F00
3FFC
3FFC
0000
0000
ENDCHAR
STARTCHAR char159
ENCODING 159
SWIDTH 0 0
DWIDTH 0 0
BBX 16 16 0 -4
BITMAP
0000
0000
0000
0000
0000
0000
03C0
03C0
0000
0000
0000
0000
0000
0000
0000
0000
ENDCHAR
STARTCHAR char160
ENCODING 160
SWIDTH 0 0
DWIDTH 0 0
BBX 16 16 0 -4
BITMAP
0000
0000
0000
0000
0000
0000
0000
0000
0000
0000
0000
0000
0000
0000
0000
0000
ENDCHAR
STARTCHAR char161
ENCODING 161
SWIDTH 0 0
DWIDTH 0 0
BBX 16 16 0 -4
BITMAP
0F00
0F00
0000
0000
0F00
0F00
0F00
0F00
3FC0
3FC0
3FC0
3FC0
0F00
0F00
0000
0000
ENDCHAR
STARTCHAR char162
ENCODING 162
SWIDTH 0 0
DWIDTH 0 0
BBX 16 16 0 -4
BITMAP
0000
0000
0000
0000
0300
0300
3FF0
3FF0
F000
F000
F000
F000
3FF0
3FF0
0300
0300
ENDCHAR
STARTCHAR char163
ENCODING 163
SWIDTH 0 0
DWIDTH 0 0
BBX 16 16 0 -4
BITMAP
0000
0000
0FC0
0FC0
3C00
3C00
3C00
3C00
FF00
FF00
3C00
3C00
FFF0
FFF0
0000
0000
ENDCHAR
STARTCHAR char164
ENCODING 164
SWIDTH 0 0
DWIDTH 0 0
BBX 16 16 0 -4
BITMAP
0000
0000
F00F
F00F
0FF0
0FF0
3C3C
3C3C
3C3C
3C3C
0FF0
0FF0
F00F
F00F
0000
0000
ENDCHAR
STARTCHAR char165
ENCODING 165
SWIDTH 0 0
DWIDTH 0 0
BBX 16 16 0 -4
BITMAP
0000
0000
F0F0
F0F0
F0F0
F0F0
3FC0
3FC0
0F00
0F00
FFF0
FFF0
0F00
0F00
0000
0000
ENDCHAR
STARTCHAR char166
ENCODING 166
SWIDTH 0 0
DWIDTH 0 0
BBX 16 16 0 -4
BITMAP
03C0
03C0
03C0
03C0
03C0
03C0
0000
0000
03C0
03C0
03C0
03C0
03C0
03C0
0000
0000
ENDCHAR
STARTCHAR char167
ENCODING 167
SWIDTH 0 0
DWIDTH 0 0
BBX 16 16 0 -4
BITMAP
3FFC
3FFC
F000
F000
3FF0
3FF0
F03C
F03C
3FF0
3FF0
003C
003C
FFF0
FFF0
0000
0000
ENDCHAR
STARTCHAR char168
ENCODING 168
SWIDTH 0 0
DWIDTH 0 0
BBX 16 16 0 -4
BITMAP
F03C
F03C
0000
0000
0000
0000
0000
0000
0000
0000
0000
0000
0000
0000
0000
0000
ENDCHAR
STARTCHAR char169
ENCODING 169
SWIDTH 0 0
DWIDTH 0 0
BBX 16 16 0 -4
BITMAP
3FF0
3FF0
C00C
C00C
CFCC
CFCC
CC0C
CC0C
CFCC
CFCC
C00C
C00C
3FF0
3FF0
0000
0000
ENDCHAR
STARTCHAR char170
ENCODING 170
SWIDTH 0 0
DWIDTH 0 0
BBX 16 16 0 -4
BITMAP
03F0
03F0
003C
003C
03FC
03FC
0C0C
0C0C
03FF
03FF
0FFF
0FFF
0000
0000
0000
0000
ENDCHAR
STARTCHAR char171
ENCODING 171
SWIDTH 0 0
DWIDTH 0 0
BBX 16 16 0 -4
BITMAP
0000
0000
0F0F
0F0F
3C3C
3C3C
F0F0
F0F0
3C3C
3C3C
0F0F
0F0F
0000
0000
0000
0000
ENDCHAR
STARTCHAR char172
ENCODING 172
SWIDTH 0 0
DWIDTH 0 0
BBX 16 16 0 -4
BITMAP
0000
0000
FFFC
FFFC
003C
003C
0000
0000
0000
0000
0000
0000
0000
0000
0000
0000
ENDCHAR
STARTCHAR char173
ENCODING 173
SWIDTH 0 0
DWIDTH 0 0
BBX 16 16 0 -4
BITMAP
0000
0000
0000
0000
0000
0000
0000
0000
0000
0000
0000
0000
0000
0000
0000
0000
ENDCHAR
STARTCHAR char174
ENCODING 174
SWIDTH 0 0
DWIDTH 0 0
BBX 16 16 0 -4
BITMAP
3FF0
3FF0
C00C
C00C
CFCC
CFCC
CF0C
CF0C
CCCC
CCCC
C00C
C00C
3FF0
3FF0
0000
0000
ENDCHAR
STARTCHAR char175
ENCODING 175
SWIDTH 0 0
DWIDTH 0 0
BBX 16 16 0 -4
BITMAP
FFFC
FFFC
0000
0000
0000
0000
0000
0000
0000
0000
0000
0000
0000
0000
0000
0000
ENDCHAR
STARTCHAR char176
ENCODING 176
SWIDTH 0 0
DWIDTH 0 0
BBX 16 16 0 -4
BITMAP
0FC0
0FC0
3CF0
3CF0
0FC0
0FC0
0000
0000
0000
0000
0000
0000
0000
0000
0000
0000
ENDCHAR
STARTCHAR char177
ENCODING 177
SWIDTH 0 0
DWIDTH 0 0
BBX 16 16 0 -4
BITMAP
0000
0000
0300
0300
3FF0
3FF0
0300
0300
0000
0000
3FF0
3FF0
0000
0000
0000
0000
ENDCHAR
STARTCHAR char178
ENCODING 178
SWIDTH 0 0
DWIDTH 0 0
BBX 16 16 0 -4
BITMAP
03F0
03F0
0F3C
0F3C
003C
003C
03C0
03C0
0FFC
0FFC
0000
0000
0000
0000
0000
0000
ENDCHAR
STARTCHAR char179
ENCODING 179
SWIDTH 0 0
DWIDTH 0 0
BBX 16 16 0 -4
BITMAP
03FC
03FC
000C
000C
00FC
00FC
000C
000C
03FC
03FC
0000
0000
0000
0000
0000
0000
ENDCHAR
STARTCHAR char180
ENCODING 180
SWIDTH 0 0
DWIDTH 0 0
BBX 16 16 0 -4
BITMAP
03C0
03C0
0F00
0F00
0000
0000
0000
0000
0000
0000
0000
0000
0000
0000
0000
0000
ENDCHAR
STARTCHAR char181
ENCODING 181
SWIDTH 0 0
DWIDTH 0 0
BBX 16 16 0 -4
BITMAP
0000
0000
0000
0000
F0F0
F0F0
F0F0
F0F0
F0F0
F0F0
F0F0
F0F0
3F3C
3F3C
F000
F000
ENDCHAR
STARTCHAR char182
ENCODING 182
SWIDTH 0 0
DWIDTH 0 0
BBX 16 16 0 -4
BITMAP
3FFC
3FFC
F0CC
F0CC
F0CC
F0CC
3FFC
3FFC
00CC
00CC
00CC
00CC
00CC
00CC
0000
0000
ENDCHAR
STARTCHAR char183
ENCODING 183
SWIDTH 0 0
DWIDTH 0 0
BBX 16 16 0 -4
BITMAP
0000
0000
0000
0000
0000
0000
03C0
03C0
0000
0000
0000
0000
0000
0000
0000
0000
ENDCHAR
STARTCHAR char184
ENCODING 184
SWIDTH 0 0
DWIDTH 0 0
BBX 16 16 0 -4
BITMAP
0000
0000
0000
0000
0000
0000
0000
0000
0000
0000
0000
0000
03C0
03C0
0F00
0F00
ENDCHAR
STARTCHAR char185
ENCODING 185
SWIDTH 0 0
DWIDTH 0 0
BBX 16 16 0 -4
BITMAP
003C
003C
00FC
00FC
003C
003C
003C
003C
003C
003C
0000
0000
0000
0000
0000
0000
ENDCHAR
STARTCHAR char186
ENCODING 186
SWIDTH 0 0
DWIDTH 0 0
BBX 16 16 0 -4
BITMAP
00FC
00FC
0303
0303
0303
0303
0303
0303
00FC
00FC
03FF
03FF
0000
0000
0000
0000
ENDCHAR
STARTCHAR char187
ENCODING 187
SWIDTH 0 0
DWIDTH 0 0
BBX 16 16 0 -4
BITMAP
0000
0000
F0F0
F0F0
3C3C
3C3C
0F0F
0F0F
3C3C
3C3C
F0F0
F0F0
0000
0000
0000
0000
ENDCHAR
STARTCHAR char188
ENCODING 188
SWIDTH 0 0
DWIDTH 0 0
BBX 16 16 0 -4
BITMAP
3C00
3C00
FC00
FC00
3C3C
3C3C
3CF0
3CF0
0F0F
0F0F
3C3F
3C3F
00FF
00FF
000F
000F
ENDCHAR
STARTCHAR char189
ENCODING 189
SWIDTH 0 0
DWIDTH 0 0
BBX 16 16 0 -4
BITMAP
3C00
3C00
FC00
FC00
3C3C
3C3C
3CF0
3CF0
0F3C
0F3C
3CCC
3CCC
0030
0030
00FC
00FC
ENDCHAR
STARTCHAR char190
ENCODING 190
SWIDTH 0 0
DWIDTH 0 0
BBX 16 16 0 -4
BITMAP
FF00
FF00
0C00
0C00
C33C
C33C
3CF0
3CF0
0F0F
0F0F
3C3F
3C3F
00FF
00FF
000F
000F
ENDCHAR
STARTCHAR char191
ENCODING 191
SWIDTH 0 0
DWIDTH 0 0
BBX 16 16 0 -4
BITMAP
0F00
0F00
0000
0000
0F00
0F00
3C00
3C00
F000
F000
F0F0
F0F0
3FC0
3FC0
0000
0000
ENDCHAR
STARTCHAR char192
ENCODING 192
SWIDTH 0 0
DWIDTH 0 0
BBX 16 16 0 -4
BITMAP
03C0
03C0
00F0
00F0
0F00
0F00
3FC0
3FC0
F0F0
F0F0
FFF0
FFF0
F0F0
F0F0
0000
0000
ENDCHAR
STARTCHAR char193
ENCODING 193
SWIDTH 0 0
DWIDTH 0 0
BBX 16 16 0 -4
BITMAP
3C00
3C00
F000
F000
0F00
0F00
3FC0
3FC0
F0F0
F0F0
FFF0
FFF0
F0F0
F0F0
0000
0000
ENDCHAR
STARTCHAR char194
ENCODING 194
SWIDTH 0 0
DWIDTH 0 0
BBX 16 16 0 -4
BITMAP
3FC0
3FC0
C030
C030
0F00
0F00
3FC0
3FC0
F0F0
F0F0
FFF0
FFF0
F0F0
F0F0
0000
0000
ENDCHAR
STARTCHAR char195
ENCODING 195
SWIDTH 0 0
DWIDTH 0 0
BBX 16 16 0 -4
BITMAP
3C3C
3C3C
C3C0
C3C0
0F00
0F00
3FC0
3FC0
F0F0
F0F0
FFF0
FFF0
F0F0
F0F0
0000
0000
ENDCHAR
STARTCHAR char196
ENCODING 196
SWIDTH 0 0
DWIDTH 0 0
BBX 16 16 0 -4
BITMAP
F0F0
F0F0
0000
0000
0F00
0F00
3FC0
3FC0
F0F0
F0F0
FFF0
FFF0
F0F0
F0F0
0000
0000
ENDCHAR
STARTCHAR char197
ENCODING 197
SWIDTH 0 0
DWIDTH 0 0
BBX 16 16 0 -4
BITMAP
0F00
0F00
30C0
30C0
0F00
0F00
3FC0
3FC0
F0F0
F0F0
FFF0
FFF0
F0F0
F0F0
0000
0000
ENDCHAR
STARTCHAR char198
ENCODING 198
SWIDTH 0 0
DWIDTH 0 0
BBX 16 16 0 -4
BITMAP
0FFC
0FFC
3FC0
3FC0
C3C0
C3C0
C3F0
C3F0
FFC0
FFC0
C3C0
C3C0
C3FC
C3FC
0000
0000
ENDCHAR
STARTCHAR char199
ENCODING 199
SWIDTH 0 0
DWIDTH 0 0
BBX 16 16 0 -4
BITMAP
0FF0
0FF0
3C3C
3C3C
F000
F000
F000
F000
F000
F000
3C3C
3C3C
03F0
03F0
0F00
0F00
ENDCHAR
STARTCHAR char200
ENCODING 200
SWIDTH 0 0
DWIDTH 0 0
BBX 16 16 0 -4
BITMAP
0F00
0F00
03C0
03C0
FFFC
FFFC
3C0C
3C0C
3FC0
3FC0
3C0C
3C0C
FFFC
FFFC
0000
0000
ENDCHAR
STARTCHAR char201
ENCODING 201
SWIDTH 0 0
DWIDTH 0 0
BBX 16 16 0 -4
BITMAP
03C0
03C0
0F00
0F00
FFFC
FFFC
3C0C
3C0C
3FC0
3FC0
3C0C
3C0C
FFFC
FFFC
0000
0000
ENDCHAR
STARTCHAR char202
ENCODING 202
SWIDTH 0 0
DWIDTH 0 0
BBX 16 16 0 -4
BITMAP
0FC0
0FC0
3030
3030
FFFC
FFFC
3C0C
3C0C
3FC0
3FC0
3C0C
3C0C
FFFC
FFFC
0000
0000
ENDCHAR
STARTCHAR char203
ENCODING 203
SWIDTH 0 0
DWIDTH 0 0
BBX 16 16 0 -4
BITMAP
3C3C
3C3C
0000
0000
FFFC
FFFC
3C0C
3C0C
3FC0
3FC0
3C0C
3C0C
FFFC
FFFC
0000
0000
ENDCHAR
STARTCHAR char204
ENCODING 204
SWIDTH 0 0
DWIDTH 0 0
BBX 16 16 0 -4
BITMAP
3C00
3C00
0F00
0F00
3FC0
3FC0
0F00
0F00
0F00
0F00
0F00
0F00
3FC0
3FC0
0000
0000
ENDCHAR
STARTCHAR char205
ENCODING 205
SWIDTH 0 0
DWIDTH 0 0
BBX 16 16 0 -4
BITMAP
03C0
03C0
0F00
0F00
3FC0
3FC0
0F00
0F00
0F00
0F00
0F00
0F00
3FC0
3FC0
0000
0000
ENDCHAR
STARTCHAR char206
ENCODING 206
SWIDTH 0 0
DWIDTH 0 0
BBX 16 16 0 -4
BITMAP
3FC0
3FC0
C030
C030
3FC0
3FC0
0F00
0F00
0F00
0F00
0F00
0F00
3FC0
3FC0
0000
0000
ENDCHAR
STARTCHAR char207
ENCODING 207
SWIDTH 0 0
DWIDTH 0 0
BBX 16 16 0 -4
BITMAP
F0F0
F0F0
0000
0000
3FC0
3FC0
0F00
0F00
0F00
0F00
0F00
0F00
3FC0
3FC0
0000
0000
ENDCHAR
STARTCHAR char208
ENCODING 208
SWIDTH 0 0
DWIDTH 0 0
BBX 16 16 0 -4
BITMAP
3FC0
3FC0
3CF0
3CF0
3C3C
3C3C
FF3C
FF3C
3C3C
3C3C
3CF0
3CF0
3FC0
3FC0
0000
0000
ENDCHAR
STARTCHAR char209
ENCODING 209
SWIDTH 0 0
DWIDTH 0 0
BBX 16 16 0 -4
BITMAP
3C3C
3C3C
C3C0
C3C0
FC3C
FC3C
FF3C
FF3C
F3FC
F3FC
F0FC
F0FC
F03C
F03C
0000
0000
ENDCHAR
STARTCHAR char210
ENCODING 210
SWIDTH 0 0
DWIDTH 0 0
BBX 16 16 0 -4
BITMAP
0F00
0F00
03C0
03C0
3FF0
3FF0
F03C
F03C
F03C
F03C
F03C
F03C
3FF0
3FF0
0000
0000
ENDCHAR
STARTCHAR char211
ENCODING 211
SWIDTH 0 0
DWIDTH 0 0
BBX 16 16 0 -4
BITMAP
03C0
03C0
0F00
0F00
3FF0
3FF0
F03C
F03C
F03C
F03C
F03C
F03C
3FF0
3FF0
0000
0000
ENDCHAR
STARTCHAR char212
ENCODING 212
SWIDTH 0 0
DWIDTH 0 0
BBX 16 16 0 -4
BITMAP
0FC0
0FC0
3030
3030
3FF0
3FF0
F03C
F03C
F03C
F03C
F03C
F03C
3FF0
3FF0
0000
0000
ENDCHAR
STARTCHAR char213
ENCODING 213
SWIDTH 0 0
DWIDTH 0 0
BBX 16 16 0 -4
BITMAP
3C3C
3C3C
C3C0
C3C0
3FF0
3FF0
F03C
F03C
F03C
F03C
F03C
F03C
3FF0
3FF0
0000
0000
ENDCHAR
STARTCHAR char214
ENCODING 214
SWIDTH 0 0
DWIDTH 0 0
BBX 16 16 0 -4
BITMAP
F03C
F03C
0000
0000
3FF0
3FF0
F03C
F03C
F03C
F03C
F03C
F03C
3FF0
3FF0
0000
0000
ENDCHAR
STARTCHAR char215
ENCODING 215
SWIDTH 0 0
DWIDTH 0 0
BBX 16 16 0 -4
BITMAP
0000
0000
F03C
F03C
3CF0
3CF0
0FC0
0FC0
0FC0
0FC0
3CF0
3CF0
F03C
F03C
0000
0000
ENDCHAR
STARTCHAR char216
ENCODING 216
SWIDTH 0 0
DWIDTH 0 0
BBX 16 16 0 -4
BITMAP
003C
003C
3FF0
3FF0
F0FC
F0FC
C3CC
C3CC
CF0C
CF0C
FC3C
FC3C
3FC0
3FC0
F000
F000
ENDCHAR
STARTCHAR char217
ENCODING 217
SWIDTH 0 0
DWIDTH 0 0
BBX 16 16 0 -4
BITMAP
3C00
3C00
0F00
0F00
F0F0
F0F0
F0F0
F0F0
F0F0
F0F0
F0F0
F0F0
FFF0
FFF0
0000
0000
ENDCHAR
STARTCHAR char218
ENCODING 218
SWIDTH 0 0
DWIDTH 0 0
BBX 16 16 0 -4
BITMAP
03C0
03C0
0F00
0F00
F0F0
F0F0
F0F0
F0F0
F0F0
F0F0
F0F0
F0F0
FFF0
FFF0
0000
0000
ENDCHAR
STARTCHAR char219
ENCODING 219
SWIDTH 0 0
DWIDTH 0 0
BBX 16 16 0 -4
BITMAP
3FC0
3FC0
C030
C030
F0F0
F0F0
F0F0
F0F0
F0F0
F0F0
F0F0
F0F0
FFF0
FFF0
0000
0000
ENDCHAR
STARTCHAR char220
ENCODING 220
SWIDTH 0 0
DWIDTH 0 0
BBX 16 16 0 -4
BITMAP
F0F0
F0F0
0000
0000
F0F0
F0F0
F0F0
F0F0
F0F0
F0F0
F0F0
F0F0
FFF0
FFF0
0000
0000
ENDCHAR
STARTCHAR char221
ENCODING 221
SWIDTH 0 0
DWIDTH 0 0
BBX 16 16 0 -4
BITMAP
03C0
03C0
0F00
0F00
F0F0
F0F0
F0F0
F0F0
3FC0
3FC0
0F00
0F00
3FC0
3FC0
0000
0000
ENDCHAR
STARTCHAR char222
ENCODING 222
SWIDTH 0 0
DWIDTH 0 0
BBX 16 16 0 -4
BITMAP
3C00
3C00
3FC0
3FC0
3CF0
3CF0
3FC0
3FC0
3C00
3C00
3C00
3C00
3C00
3C00
0000
0000
ENDCHAR
STARTCHAR char223
ENCODING 223
SWIDTH 0 0
DWIDTH 0 0
BBX 16 16 0 -4
BITMAP
3FC0
3FC0
F0F0
F0F0
F030
F030
F3F0
F3F0
F03C
F03C
F03C
F03C
F3F0
F3F0
F000
F000
ENDCHAR
STARTCHAR char224
ENCODING 224
SWIDTH 0 0
DWIDTH 0 0
BBX 16 16 0 -4
BITMAP
0F00
0F00
03C0
03C0
3FC0
3FC0
00F0
00F0
3FF0
3FF0
F0F0
F0F0
3F3C
3F3C
0000
0000
ENDCHAR
STARTCHAR char225
ENCODING 225
SWIDTH 0 0
DWIDTH 0 0
BBX 16 16 0 -4
BITMAP
03C0
03C0
0F00
0F00
3FC0
3FC0
00F0
00F0
3FF0
3FF0
F0F0
F0F0
3F3C
3F3C
0000
0000
ENDCHAR
STARTCHAR char226
ENCODING 226
SWIDTH 0 0
DWIDTH 0 0
BBX 16 16 0 -4
BITMAP
3FC0
3FC0
C030
C030
3FC0
3FC0
00F0
00F0
3FF0
3FF0
F0F0
F0F0
3F3C
3F3C
0000
0000
ENDCHAR
STARTCHAR char227
ENCODING 227
SWIDTH 0 0
DWIDTH 0 0
BBX 16 16 0 -4
BITMAP
3C3C
3C3C
C3C0
C3C0
3FC0
3FC0
00F0
00F0
3FF0
3FF0
F0F0
F0F0
3F3C
3F3C
0000
0000
ENDCHAR
STARTCHAR char228
ENCODING 228
SWIDTH 0 0
DWIDTH 0 0
BBX 16 16 0 -4
BITMAP
F0F0
F0F0
0000
0000
3FC0
3FC0
00F0
00F0
3FF0
3FF0
F0F0
F0F0
3F3C
3F3C
0000
0000
ENDCHAR
STARTCHAR char229
ENCODING 229
SWIDTH 0 0
DWIDTH 0 0
BBX 16 16 0 -4
BITMAP
0F00
0F00
30C0
30C0
0FC0
0FC0
00F0
00F0
3FF0
3FF0
F0F0
F0F0
3F3C
3F3C
0000
0000
ENDCHAR
STARTCHAR char230
ENCODING 230
SWIDTH 0 0
DWIDTH 0 0
BBX 16 16 0 -4
BITMAP
0000
0000
0000
0000
FCF0
FCF0
0F0C
0F0C
3FFC
3FFC
CF00
CF00
3CFC
3CFC
0000
0000
ENDCHAR
STARTCHAR char231
ENCODING 231
SWIDTH 0 0
DWIDTH 0 0
BBX 16 16 0 -4
BITMAP
0000
0000
0000
0000
0FF0
0FF0
3C3C
3C3C
F000
F000
3C3C
3C3C
03F0
03F0
0F00
0F00
ENDCHAR
STARTCHAR char232
ENCODING 232
SWIDTH 0 0
DWIDTH 0 0
BBX 16 16 0 -4
BITMAP
0F00
0F00
03C0
03C0
3FC0
3FC0
F0F0
F0F0
FFF0
FFF0
F000
F000
3FC0
3FC0
0000
0000
ENDCHAR
STARTCHAR char233
ENCODING 233
SWIDTH 0 0
DWIDTH 0 0
BBX 16 16 0 -4
BITMAP
03C0
03C0
0F00
0F00
3FC0
3FC0
F0F0
F0F0
FFF0
FFF0
F000
F000
3FC0
3FC0
0000
0000
ENDCHAR
STARTCHAR char234
ENCODING 234
SWIDTH 0 0
DWIDTH 0 0
BBX 16 16 0 -4
BITMAP
3FC0
3FC0
C030
C030
3FC0
3FC0
F0F0
F0F0
FFF0
FFF0
F000
F000
3FC0
3FC0
0000
0000
ENDCHAR
STARTCHAR char235
ENCODING 235
SWIDTH 0 0
DWIDTH 0 0
BBX 16 16 0 -4
BITMAP
F0F0
F0F0
0000
0000
3FC0
3FC0
F0F0
F0F0
FFF0
FFF0
F000
F000
3FC0
3FC0
0000
0000
ENDCHAR
STARTCHAR char236
ENCODING 236
SWIDTH 0 0
DWIDTH 0 0
BBX 16 16 0 -4
BITMAP
3C00
3C00
0F00
0F00
0000
0000
3F00
3F00
0F00
0F00
0F00
0F00
3FC0
3FC0
0000
0000
ENDCHAR
STARTCHAR char237
ENCODING 237
SWIDTH 0 0
DWIDTH 0 0
BBX 16 16 0 -4
BITMAP
03C0
03C0
0F00
0F00
0000
0000
3F00
3F00
0F00
0F00
0F00
0F00
3FC0
3FC0
0000
0000
ENDCHAR
STARTCHAR char238
ENCODING 238
SWIDTH 0 0
DWIDTH 0 0
BBX 16 16 0 -4
BITMAP
3F00
3F00
C0C0
C0C0
0000
0000
3F00
3F00
0F00
0F00
0F00
0F00
3FC0
3FC0
0000
0000
ENDCHAR
STARTCHAR char239
ENCODING 239
SWIDTH 0 0
DWIDTH 0 0
BBX 16 16 0 -4
BITMAP
F0F0
F0F0
0000
0000
0000
0000
3F00
3F00
0F00
0F00
0F00
0F00
3FC0
3FC0
0000
0000
ENDCHAR
STARTCHAR char240
ENCODING 240
SWIDTH 0 0
DWIDTH 0 0
BBX 16 16 0 -4
BITMAP
3CF0
3CF0
0FC0
0FC0
3CF0
3CF0
00F0
00F0
3CF0
3CF0
F0F0
F0F0
3FC0
3FC0
0000
0000
ENDCHAR
STARTCHAR char241
ENCODING 241
SWIDTH 0 0
DWIDTH 0 0
BBX 16 16 0 -4
BITMAP
3C3C
3C3C
C3C0
C3C0
FFC0
FFC0
F0F0
F0F0
F0F0
F0F0
F0F0
F0F0
F0F0
F0F0
0000
0000
ENDCHAR
STARTCHAR char242
ENCODING 242
SWIDTH 0 0
DWIDTH 0 0
BBX 16 16 0 -4
BITMAP
3C00
3C00
0F00
0F00
0000
0000
3FF0
3FF0
F03C
F03C
F03C
F03C
3FF0
3FF0
0000
0000
ENDCHAR
STARTCHAR char243
ENCODING 243
SWIDTH 0 0
DWIDTH 0 0
BBX 16 16 0 -4
BITMAP
03C0
03C0
0F00
0F00
0000
0000
3FF0
3FF0
F03C
F03C
F03C
F03C
3FF0
3FF0
0000
0000
ENDCHAR
STARTCHAR char244
ENCODING 244
SWIDTH 0 0
DWIDTH 0 0
BBX 16 16 0 -4
BITMAP
0FC0
0FC0
3030
3030
0000
0000
3FF0
3FF0
F03C
F03C
F03C
F03C
3FF0
3FF0
0000
0000
ENDCHAR
STARTCHAR char245
ENCODING 245
SWIDTH 0 0
DWIDTH 0 0
BBX 16 16 0 -4
BITMAP
3C3C
3C3C
C3C0
C3C0
0000
0000
3FF0
3FF0
F03C
F03C
F03C
F03C
3FF0
3FF0
0000
0000
ENDCHAR
STARTCHAR char246
ENCODING 246
SWIDTH 0 0
DWIDTH 0 0
BBX 16 16 0 -4
BITMAP
F03C
F03C
0000
0000
0000
0000
3FF0
3FF0
F03C
F03C
F03C
F03C
3FF0
3FF0
0000
0000
ENDCHAR
STARTCHAR char247
ENCODING 247
SWIDTH 0 0
DWIDTH 0 0
BBX 16 16 0 -4
BITMAP
0000
0000
0000
0000
03C0
03C0
0000
0000
3FFC
3FFC
0000
0000
03C0
03C0
0000
0000
ENDCHAR
STARTCHAR char248
ENCODING 248
SWIDTH 0 0
DWIDTH 0 0
BBX 16 16 0 -4
BITMAP
0000
0000
0000
0000
003C
003C
3FF0
3FF0
F3FC
F3FC
FF3C
FF3C
3FF0
3FF0
F000
F000
ENDCHAR
STARTCHAR char249
ENCODING 249
SWIDTH 0 0
DWIDTH 0 0
BBX 16 16 0 -4
BITMAP
3C00
3C00
0F00
0F00
0000
0000
F0F0
F0F0
F0F0
F0F0
F0F0
F0F0
3F3C
3F3C
0000
0000
ENDCHAR
STARTCHAR char250
ENCODING 250
SWIDTH 0 0
DWIDTH 0 0
BBX 16 16 0 -4
BITMAP
03C0
03C0
0F00
0F00
0000
0000
F0F0
F0F0
F0F0
F0F0
F0F0
F0F0
3F3C
3F3C
0000
0000
ENDCHAR
STARTCHAR char251
ENCODING 251
SWIDTH 0 0
DWIDTH 0 0
BBX 16 16 0 -4
BITMAP
0F00
0F00
30C0
30C0
0000
0000
F0F0
F0F0
F0F0
F0F0
F0F0
F0F0
3F3C
3F3C
0000
0000
ENDCHAR
STARTCHAR char252
ENCODING 252
SWIDTH 0 0
DWIDTH 0 0
BBX 16 16 0 -4
BITMAP
F0F0
F0F0
0000
0000
0000
0000
F0F0
F0F0
F0F0
F0F0
F0F0
F0F0
3F3C
3F3C
0000
0000
ENDCHAR
STARTCHAR char253
ENCODING 253
SWIDTH 0 0
DWIDTH 0 0
BBX 16 16 0 -4
BITMAP
03C0
03C0
0F00
0F00
F0F0
F0F0
F0F0
F0F0
F0F0
F0F0
3FF0
3FF0
00F0
00F0
FFC0
FFC0
ENDCHAR
STARTCHAR char254
ENCODING 254
SWIDTH 0 0
DWIDTH 0 0
BBX 16 16 0 -4
BITMAP
FC00
FC00
3FC0
3FC0
3CF0
3CF0
3C3C
3C3C
3CF0
3CF0
3FC0
3FC0
FC00
FC00
0000
0000
ENDCHAR
STARTCHAR char255
ENCODING 255
SWIDTH 0 0
DWIDTH 0 0
BBX 16 16 0 -4
BITMAP
F0F0
F0F0
0000
0000
F0F0
F0F0
F0F0
F0F0
F0F0
F0F0
3FF0
3FF0
00F0
00F0
FFC0
FFC0
ENDCHAR
ENDFONT
